<?xml version="1.0" encoding="UTF-8" standalone="no"?>
<!-- Created with Inkscape (http://www.inkscape.org/) -->

<svg
   width="1280"
   height="512"
   viewBox="0 0 1280 512"
   version="1.1"
   id="svg1"
   inkscape:version="1.4.2 (ebf0e940d0, 2025-05-08)"
   sodipodi:docname="artpondo_title.svg"
   xmlns:inkscape="http://www.inkscape.org/namespaces/inkscape"
   xmlns:sodipodi="http://sodipodi.sourceforge.net/DTD/sodipodi-0.dtd"
   xmlns="http://www.w3.org/2000/svg"
   xmlns:svg="http://www.w3.org/2000/svg">
  <sodipodi:namedview
     id="namedview1"
     pagecolor="#ffffff"
     bordercolor="#000000"
     borderopacity="0.25"
     inkscape:showpageshadow="2"
     inkscape:pageopacity="0.0"
     inkscape:pagecheckerboard="true"
     inkscape:deskcolor="#d1d1d1"
     inkscape:document-units="px"
     inkscape:zoom="0.78417969"
     inkscape:cx="598.71482"
     inkscape:cy="360.24906"
     inkscape:window-width="1920"
     inkscape:window-height="1012"
     inkscape:window-x="0"
     inkscape:window-y="0"
     inkscape:window-maximized="1"
     inkscape:current-layer="layer1" />
  <defs
     id="defs1">
    <rect
       x="434.84931"
       y="144.09963"
       width="816.13948"
       height="244.84184"
       id="rect1" />
    <inkscape:path-effect
       effect="fillet_chamfer"
       id="path-effect2"
       is_visible="true"
       lpeversion="1"
       nodesatellites_param="F,0,0,1,0,0,0,1 @ F,0,0,1,0,295.06188,0,1"
       radius="0"
       unit="px"
       method="auto"
       mode="F"
       chamfer_steps="1"
       flexible="false"
       use_knot_distance="true"
       apply_no_radius="true"
       apply_with_radius="true"
       only_selected="false"
       hide_knots="false" />
    <clipPath
       clipPathUnits="userSpaceOnUse"
       id="clipPath13">
      <g
         inkscape:label="Clip"
         id="use13">
        <path
           style="fill:#c87137;fill-opacity:1;stroke:none;stroke-width:0;stroke-linecap:round;stroke-linejoin:round;stroke-miterlimit:2;stroke-dasharray:none;stroke-opacity:1"
           d="m 349.03636,219.98199 c 0,0 59.77664,-22.41622 25.81265,-96.45776 -23.7748,-29.888307 -1.35858,-67.24871 -1.35858,-67.24871 0,0 -207.85967,209.89751 -24.45407,163.70647 z"
           id="path3"
           sodipodi:nodetypes="cccc" />
      </g>
    </clipPath>
    <inkscape:path-effect
       effect="fillet_chamfer"
       id="path-effect21"
       is_visible="true"
       lpeversion="1"
       nodesatellites_param="F,0,0,1,0,0,0,1 @ F,0,0,1,0,295.06188,0,1"
       radius="0"
       unit="px"
       method="auto"
       mode="F"
       chamfer_steps="1"
       flexible="false"
       use_knot_distance="true"
       apply_no_radius="true"
       apply_with_radius="true"
       only_selected="false"
       hide_knots="false" />
    <clipPath
       clipPathUnits="userSpaceOnUse"
       id="clipPath29">
      <path
         style="fill:#c87137;fill-opacity:1;stroke:none;stroke-width:0;stroke-linecap:round;stroke-linejoin:round;stroke-miterlimit:2;stroke-dasharray:none;stroke-opacity:1"
         d="m 377.73148,191.6063 c 0,0 63.78521,-23.91944 27.54363,-102.926134 -25.36912,-31.89259 -1.44969,-71.758348 -1.44969,-71.758348 0,0 -221.79855,223.973052 -26.09394,174.684482 z"
         id="path29"
         sodipodi:nodetypes="cccc"
         clip-path="none" />
    </clipPath>
    <clipPath
       clipPathUnits="userSpaceOnUse"
       id="clipPath28">
      <path
         style="fill:#c87137;fill-opacity:1;stroke:none;stroke-width:0;stroke-linecap:round;stroke-linejoin:round;stroke-miterlimit:2;stroke-dasharray:none;stroke-opacity:1"
         d="m 377.73148,191.6063 c 0,0 63.78521,-23.91944 27.54363,-102.926134 -25.36912,-31.89259 -1.44969,-71.758348 -1.44969,-71.758348 0,0 -221.79855,223.973052 -26.09394,174.684482 z"
         id="path28"
         sodipodi:nodetypes="cccc"
         clip-path="none" />
    </clipPath>
  </defs>
  <g
     inkscape:label="Layer 1"
     inkscape:groupmode="layer"
     id="layer1">
    <path
       style="font-weight:bold;font-size:192px;line-height:1.2;font-family:Junction;-inkscape-font-specification:'Junction Bold';text-align:center;letter-spacing:0px;text-anchor:middle;white-space:pre;fill:#1a1a1a;stroke-width:0;stroke-linecap:round;stroke-linejoin:round;stroke-miterlimit:2"
       d="m 510.66317,171.45961 -54.528,147.84 h 28.416 l 17.28,-48 h 42.816 l 17.856,48 h 28.224 l -54.528,-147.84 z m 26.496,79.104 h -27.648 l 13.824,-36.864 z m 67.58382,-36.864 v 105.6 h 25.92 v -65.088 c 4.608,-9.792 12.096,-21.504 20.16,-21.504 5.184,0 12.096,9.024 12.096,9.024 l 17.28,-16.704 c 0,0 -11.52,-13.44 -29.952,-13.44 -9.984,0 -19.008,8.64 -20.928,12.48 v -10.368 z m 77.184,19.008 h 12.672 v 54.528 c 0,20.544 6.72,34.176 25.728,34.176 13.248,0 24,-3.84 34.368,-14.784 l -15.552,-14.784 c -5.952,5.952 -11.328,9.984 -14.784,8.832 -4.224,-1.344 -4.032,-8.064 -4.032,-13.44 v -54.528 h 23.808 v -19.392 h -23.808 v -38.016 h -25.728 v 38.016 h -12.672 z m 110.78397,133.248 v -56.64 c 5.184,4.224 12.288,12.096 25.344,12.096 28.992,0 46.848,-20.736 46.848,-56.448 0,-27.84 -15.744,-53.376 -40.896,-53.376 -14.976,0 -27.072,9.216 -31.296,15.936 v -13.824 h -25.536 v 152.256 z m 31.296,-132.864 c 9.216,0.192 14.976,15.36 14.976,31.872 0,22.08 -8.256,34.944 -20.928,34.944 -7.296,0 -17.28,-5.184 -25.344,-12.672 v -33.792 c 5.76,-8.448 16.32,-20.544 31.296,-20.352 z m 57.98416,33.408 c 0,41.472 24,54.912 48.384,54.912 24.192,0 48.192,-14.4 48.192,-54.912 0,-40.128 -24,-54.912 -48.192,-54.912 -24.384,0 -48.384,14.592 -48.384,54.912 z m 70.656,0 c 0,26.496 -11.328,35.904 -22.272,35.904 -11.136,0 -22.464,-9.984 -22.464,-35.904 0,-26.304 11.328,-35.712 22.464,-35.712 10.944,0 22.272,10.368 22.272,35.712 z m 74.11188,52.8 v -65.088 c 7.872,-7.296 40.128,-37.248 40.128,-8.64 v 73.728 h 25.728 v -73.728 c 0,-21.12 -8.064,-33.984 -28.032,-33.984 -13.824,0 -27.264,7.68 -37.824,15.552 v -13.44 h -25.92 v 105.6 z m 127.1039,1.344 c 13.632,0.192 25.536,-4.8 34.752,-12.288 2.304,4.8 7.296,9.984 19.776,14.592 l 14.976,-15.552 c -13.248,-4.224 -12.288,-14.784 -12.288,-14.784 v -130.752 h -25.92 v 57.6 c -8.64,-5.376 -16.896,-7.872 -25.344,-7.872 -28.8,0 -47.232,20.736 -47.232,56.448 0,27.84 16.128,52.608 41.28,52.608 z m 0.384,-21.312 c -9.408,-0.768 -15.36,-14.784 -15.36,-31.296 0,-22.08 8.256,-34.944 20.928,-34.944 6.912,0 16.512,5.76 25.344,13.824 v 31.68 c -5.568,8.64 -16.128,21.888 -30.912,20.736 z"
       id="text1"
       aria-label="Artpond"
       transform="translate(1.2752179,1.2752179)" />
    <g
       id="g30"
       inkscape:label="pon_color"
       transform="translate(-25.332127,0.41523349)">
      <path
         id="path14"
         style="fill:#89a02c;fill-opacity:1;stroke:none;stroke-width:0;stroke-linecap:square;stroke-linejoin:bevel;stroke-miterlimit:2;stroke-dasharray:none;stroke-opacity:1"
         d="m 250.23121,365.51974 c -97.31875,3.58784 -175.148412,35.30166 -173.838426,70.83467 0.152471,4.15545 5.444167,6.77104 10.369306,6.01091 l 0.122797,-0.0182 149.224443,-18.2887 46.05238,-14.8446 c 0.52408,-0.1107 -33.40728,14.73807 -45.63414,19.91305 l -82.17851,34.64729 c 1e-5,0 -16.36239,8.64579 -16.36239,8.64579 l -3.76202,1.98774 c -4.51854,2.38729 -4.2687,5.68931 0.63065,7.14128 32.83686,9.73148 75.69111,14.28554 120.11984,12.64749 97.31874,-3.58785 175.14994,-35.30172 173.83995,-70.83475 -1.31001,-35.533 -81.26513,-61.42978 -178.58388,-57.84194 z"
         sodipodi:nodetypes="scccccccccscsss" />
      <path
         style="fill:#502d16;fill-opacity:1;stroke:#102410;stroke-width:0;stroke-linecap:square;stroke-linejoin:bevel;stroke-miterlimit:2;stroke-dasharray:none;stroke-opacity:1"
         d="m 474.09076,385.51176 c 3.1565,-36.5955 -66.10117,-107.97039 -146.19868,-177.53191 -122.99677,-106.81784 -165.40584,-66.30325 -52.47586,49.69927 90.23026,92.6852 183.61849,168.32203 198.67454,127.83264 z"
         id="path15"
         inkscape:path-effect="#path-effect21"
         inkscape:original-d="M 474.09076,385.51176 C 481.44568,300.241 95.641345,26.141968 95.641345,26.141968 94.33695,76.030539 443.70794,467.2186 474.09076,385.51176 Z"
         transform="matrix(-0.28201445,-0.89376772,0.89376772,-0.28201445,153.20938,686.20752)"
         sodipodi:nodetypes="ccc" />
      <path
         style="fill:#9f9fff;fill-opacity:1;stroke:none;stroke-width:0;stroke-linecap:round;stroke-linejoin:round;stroke-miterlimit:2;stroke-dasharray:none;stroke-opacity:1"
         d="m 401.26232,18.785858 c 0,0 -234.04605,37.207437 -259.89998,101.923432 -31.30621,78.36378 -96.612029,101.23009 -96.612029,101.23009 L 91.01523,245.5135 78.768633,309.30232 c 0,0 98.599267,-23.61016 138.794747,-112.90023 17.68953,-68.13082 124.50706,-78.46622 124.50706,-78.46622 z"
         id="path16"
         sodipodi:nodetypes="cscccccc" />
      <g
         id="g29">
        <path
           style="fill:#c87137;fill-opacity:1;stroke:none;stroke-width:0;stroke-linecap:round;stroke-linejoin:round;stroke-miterlimit:2;stroke-dasharray:none;stroke-opacity:1"
           d="m 377.73148,191.6063 c 0,0 63.78521,-23.91944 27.54363,-102.926134 -25.36912,-31.89259 -1.44969,-71.758348 -1.44969,-71.758348 0,0 -221.79855,223.973052 -26.09394,174.684482 z"
           id="path17"
           sodipodi:nodetypes="cccc"
           clip-path="url(#clipPath29)" />
        <path
           style="fill:#4848ff;fill-opacity:1;stroke:none;stroke-width:0;stroke-linecap:round;stroke-linejoin:round;stroke-miterlimit:2;stroke-dasharray:none;stroke-opacity:1"
           d="m 308.05212,116.07826 c 0,0 38.43073,28.89515 62.16849,9.52514 31.89218,-26.024015 59.9573,0.68037 55.53491,-17.00917 C 416.91077,73.215171 409.42672,17.425126 402.62306,11.982194 395.81939,6.5392633 308.05212,116.07826 308.05212,116.07826 Z"
           id="path18"
           sodipodi:nodetypes="csssc"
           clip-path="url(#clipPath28)" />
      </g>
      <path
         style="fill:#666666;fill-opacity:1;stroke:none;stroke-width:0;stroke-linecap:round;stroke-linejoin:round;stroke-miterlimit:2;stroke-dasharray:none;stroke-opacity:1"
         d="m 308.05212,207.24736 68.03664,-6.80366 c 0,0 19.73063,-15.64843 0,-13.60733 -8.84476,1.36074 -68.717,2.72147 -68.03664,20.41099 z"
         id="path19" />
    </g>
  </g>
</svg>
