<?xml version="1.0" encoding="UTF-8" standalone="no"?>
<!-- Created with Inkscape (http://www.inkscape.org/) -->

<svg
   width="512"
   height="512"
   viewBox="0 0 512 512"
   version="1.1"
   id="svg1"
   sodipodi:docname="artpondo_web.svg"
   inkscape:version="1.4.2 (ebf0e940d0, 2025-05-08)"
   xmlns:inkscape="http://www.inkscape.org/namespaces/inkscape"
   xmlns:sodipodi="http://sodipodi.sourceforge.net/DTD/sodipodi-0.dtd"
   xmlns="http://www.w3.org/2000/svg"
   xmlns:svg="http://www.w3.org/2000/svg">
  <sodipodi:namedview
     id="namedview1"
     pagecolor="#ffffff"
     bordercolor="#000000"
     borderopacity="0.25"
     inkscape:showpageshadow="2"
     inkscape:pageopacity="0.0"
     inkscape:pagecheckerboard="0"
     inkscape:deskcolor="#d1d1d1"
     inkscape:zoom="1.5683594"
     inkscape:cx="256"
     inkscape:cy="256"
     inkscape:window-width="1920"
     inkscape:window-height="1012"
     inkscape:window-x="0"
     inkscape:window-y="0"
     inkscape:window-maximized="1"
     inkscape:current-layer="svg1" />
  <defs
     id="defs1">
    <clipPath
       clipPathUnits="userSpaceOnUse"
       id="clipPath28">
      <path
         style="fill:#c87137;fill-opacity:1;stroke:none;stroke-width:0;stroke-linecap:round;stroke-linejoin:round;stroke-miterlimit:2;stroke-dasharray:none;stroke-opacity:1"
         d="m 377.73148,191.6063 c 0,0 63.78521,-23.91944 27.54363,-102.926134 -25.36912,-31.89259 -1.44969,-71.758348 -1.44969,-71.758348 0,0 -221.79855,223.973052 -26.09394,174.684482 z"
         id="path28"
         clip-path="none" />
    </clipPath>
    <clipPath
       clipPathUnits="userSpaceOnUse"
       id="clipPath29">
      <path
         style="fill:#c87137;fill-opacity:1;stroke:none;stroke-width:0;stroke-linecap:round;stroke-linejoin:round;stroke-miterlimit:2;stroke-dasharray:none;stroke-opacity:1"
         d="m 377.73148,191.6063 c 0,0 63.78521,-23.91944 27.54363,-102.926134 -25.36912,-31.89259 -1.44969,-71.758348 -1.44969,-71.758348 0,0 -221.79855,223.973052 -26.09394,174.684482 z"
         id="path29"
         clip-path="none" />
    </clipPath>
  </defs>
  <g
     id="g30"
     style="display:inline">
    <path
       id="path14"
       style="fill-opacity:1;stroke:none;stroke-width:0;stroke-linecap:square;stroke-linejoin:bevel;stroke-miterlimit:2;stroke-dasharray:none;stroke-opacity:1"
       d="m 223.91992,367.20508 c -84.65471,7.76896 -148.716845,36.88349 -147.527342,69.14844 0.152471,4.15545 5.444002,6.77184 10.369141,6.01171 l 0.123047,-0.0176 124.675784,-15.28125 c 0.91199,-15.49437 4.84693,-35.52947 12.35937,-59.86133 z m 92.92578,0.5957 c -56.45908,101.80461 -102.09491,121.0647 -105.3125,71.86328 l -57.18359,24.10938 c 10e-6,0 -16.36328,8.64648 -16.36328,8.64648 l -3.76172,1.98828 c -4.51854,2.38729 -4.26849,5.68866 0.63086,7.14063 32.83686,9.73148 75.69041,14.28649 120.11914,12.64844 97.31874,-3.58785 175.14983,-35.30291 173.83984,-70.83594 -0.9936,-26.95066 -47.22891,-48.35723 -111.96875,-55.56055 z" />
    <path
       id="path15"
       style="fill-opacity:1;stroke:#102410;stroke-width:0;stroke-linecap:square;stroke-linejoin:bevel;stroke-miterlimit:2;stroke-dasharray:none;stroke-opacity:1"
       d="m 474.09178,385.51153 c 1.10386,-12.79779 -6.64962,-29.84858 -20.62437,-49.58814 -0.84488,22.02492 -6.43294,45.65393 -9.1108,58.31501 14.94872,4.88679 25.47656,2.72559 29.73517,-8.72687 z m -58.77141,-5.77368 13.7437,-74.23045 c -26.65541,-30.21662 -62.66,-64.08149 -101.17136,-97.52707 -122.99678,-106.81784 -165.40732,-66.3035 -52.47735,49.69902 50.37795,51.7486 101.74121,98.18304 139.90501,122.0585 z"
       transform="matrix(-0.28201445,-0.89376772,0.89376772,-0.28201445,153.20938,686.20752)" />
    <path
       id="path16"
       style="fill-opacity:1;stroke:none;stroke-width:0;stroke-linecap:round;stroke-linejoin:round;stroke-miterlimit:2;stroke-dasharray:none;stroke-opacity:1"
       d="M 390.94141,20.548828 C 345.4312,28.629452 163.94981,64.171738 141.36328,120.70898 110.05707,199.07276 44.75,221.93945 44.75,221.93945 l 46.265625,23.57422 -12.246094,63.78906 c 0,0 98.597489,-23.61032 138.792969,-112.90039 10.62972,-40.94011 53.44231,-61.01206 85.92188,-70.51172 22.66572,-36.976211 61.58216,-79.079112 87.45703,-105.341792 z" />
    <g
       id="g29">
      <path
         id="path17"
         clip-path="url(#clipPath29)"
         style="fill-opacity:1;stroke:none;stroke-width:0;stroke-linecap:round;stroke-linejoin:round;stroke-miterlimit:2;stroke-dasharray:none;stroke-opacity:1"
         d="m 405.81836,120.33203 c -10.12687,0.64541 -21.93295,3.678 -34.22461,12.77149 -18.08846,13.382 -43.45608,5.08375 -58.99023,-2.35938 -15.78367,27.49979 -22.50118,52.00274 -6.01368,62.51172 26.36784,-13.52874 71.65918,-14.42551 80.69141,-16.25977 5.25218,-0.67404 8.56332,-0.11437 10.4668,1.24805 11.24515,-10.87612 22.18597,-29.2106 17.59375,-57.89844 -2.95811,-0.17978 -6.14782,-0.2288 -9.52344,-0.0137 z" />
      <path
         style="fill-opacity:1;stroke:none;stroke-width:0;stroke-linecap:round;stroke-linejoin:round;stroke-miterlimit:2;stroke-dasharray:none;stroke-opacity:1"
         d="m 308.05212,116.07826 c 0,0 38.43073,28.89515 62.16849,9.52514 31.89218,-26.024015 59.9573,0.68037 55.53491,-17.00917 C 416.91077,73.215171 409.42672,17.425126 402.62306,11.982194 395.81939,6.5392633 308.05212,116.07826 308.05212,116.07826 Z"
         id="path18"
         clip-path="url(#clipPath28)" />
    </g>
    <path
       style="fill-opacity:1;stroke:none;stroke-width:0;stroke-linecap:round;stroke-linejoin:round;stroke-miterlimit:2;stroke-dasharray:none;stroke-opacity:1"
       d="m 308.05212,207.24736 68.03664,-6.80366 c 0,0 19.73063,-15.64843 0,-13.60733 -8.84476,1.36074 -68.717,2.72147 -68.03664,20.41099 z"
       id="path19" />
  </g>
</svg>
